HIERARCHY
ROOT Hips
{
	OFFSET 0.000000 0.000000 0.000000
	CHANNELS 6 Xposition Yposition Zposition Zrotation Yrotation Xrotation 
	JOINT LowerBack
	{
		OFFSET 0.000000 0.000000 0.000000
		CHANNELS 3 Zrotation Yrotation Xrotation
		JOINT Spine
		{
			OFFSET 0.028270 2.035590 -0.193380
			CHANNELS 3 Zrotation Yrotation Xrotation
			JOINT Spine1
			{
				OFFSET 0.056720 2.048850 -0.042750
				CHANNELS 3 Zrotation Yrotation Xrotation
				JOINT Neck
				{
					OFFSET 0.000000 0.000000 0.000000
					CHANNELS 3 Zrotation Yrotation Xrotation
					JOINT Neck1
					{
						OFFSET -0.054170 1.746240 0.172020
						CHANNELS 3 Zrotation Yrotation Xrotation
						JOINT Head
						{
							OFFSET 0.104070 1.761360 -0.123970
							CHANNELS 3 Zrotation Yrotation Xrotation
							End Site
							{
								OFFSET 0.000000 0.000000 0.000000
							}
						}
					}
				}
				JOINT LeftShoulder
				{
					OFFSET 0.000000 0.000000 0.000000
					CHANNELS 3 Zrotation Yrotation Xrotation
					JOINT LeftArm
					{
						OFFSET 3.362410 1.200890 -0.311210
						CHANNELS 3 Zrotation Yrotation Xrotation
						JOINT LeftForeArm
						{
							OFFSET 4.983000 -0.000000 -0.000000
							CHANNELS 3 Zrotation Yrotation Xrotation
							JOINT LeftHand
							{
								OFFSET 3.483560 -0.000000 -0.000000
								CHANNELS 3 Zrotation Yrotation Xrotation
								JOINT LeftFingerBase
								{
									OFFSET 0.000000 0.000000 0.000000
									CHANNELS 3 Zrotation Yrotation Xrotation
									JOINT LeftHandIndex1
									{
										OFFSET 0.715260 -0.000000 -0.000000
										CHANNELS 3 Zrotation Yrotation Xrotation
										End Site
										{
											OFFSET 0.000000 0.000000 0.000000
										}
									}
								}
								JOINT LThumb
								{
									OFFSET 0.000000 0.000000 0.000000
									CHANNELS 3 Zrotation Yrotation Xrotation
									End Site
									{
										OFFSET 0.000000 0.000000 0.000000
									}
								}
							}
						}
					}
				}
				JOINT RightShoulder
				{
					OFFSET 0.000000 0.000000 0.000000
					CHANNELS 3 Zrotation Yrotation Xrotation
					JOINT RightArm
					{
						OFFSET -3.136600 1.374050 -0.404650
						CHANNELS 3 Zrotation Yrotation Xrotation
						JOINT RightForeArm
						{
							OFFSET -5.241900 -0.000000 -0.000000
							CHANNELS 3 Zrotation Yrotation Xrotation
							JOINT RightHand
							{
								OFFSET -3.444170 -0.000000 -0.000000
								CHANNELS 3 Zrotation Yrotation Xrotation
								JOINT RightFingerBase
								{
									OFFSET 0.000000 0.000000 0.000000
									CHANNELS 3 Zrotation Yrotation Xrotation
									JOINT RightHandIndex1
									{
										OFFSET -0.622530 -0.000000 -0.000000
										CHANNELS 3 Zrotation Yrotation Xrotation
										End Site
										{
											OFFSET 0.000000 0.000000 0.000000
										}
									}
								}
								JOINT RThumb
								{
									OFFSET 0.000000 0.000000 0.000000
									CHANNELS 3 Zrotation Yrotation Xrotation
									End Site
									{
										OFFSET 0.000000 0.000000 0.000000
									}
								}
							}
						}
					}
				}
			}
		}
	}
}
}
MOTION
Frames: 14
Frame Time: 0.008333
-11.358037 16.696880 1.189484 -169.659490 89.359672 -158.226036 2.089247 -3.270538 -0.828367 -0.399837 -3.500489 -3.020994 -7.267814 -3.537786 0.490353 9.092524 -7.106879 -6.652497 -4.081835 -0.320948 0.244704 0.000000 0.000000 0.000000 -4.378056 4.829013 1.145399 -49.899621 -4.193063 10.929425 -1.564693 -59.805721 -0.026389 16.654057 -1.624727 -0.257456 -0.209370 0.125223 0.000000 0.000000 0.000000 0.000000 0.000000 0.000000 0.000000 17.270742 -6.395030 1.456222 59.396193 -10.619603 -10.828495 4.363483 3.012252 -0.001872 -4.978222 -0.469818 0.020801 0.157985 -0.006661 -0.000000 0.000000 0.000000 0.000000 0.000000 0.000000 0.000000 
-11.140422 16.693081 1.184835 -123.532223 89.325160 -112.204237 2.668116 -3.063750 -0.719244 -0.321277 -3.328267 -3.038002 -7.267007 -3.364921 0.456763 8.944958 -6.671918 -6.620207 -4.114662 -0.323092 0.251426 0.000000 0.000000 0.000000 -4.802143 5.125371 1.168944 -50.568038 -4.191747 10.661450 -1.621711 -58.672736 -0.025470 16.700739 -1.313820 -0.210743 -0.203169 0.116634 0.000000 0.000000 0.000000 0.000000 0.000000 0.000000 0.000000 17.175448 -5.837506 1.484909 59.416742 -9.857783 -10.527840 4.334770 3.073312 -0.001457 -5.509321 -0.199055 0.009415 0.159081 -0.009728 -0.000000 0.000000 0.000000 0.000000 0.000000 0.000000 0.000000 
-10.927998 16.693249 1.176414 -107.166283 88.933510 -95.924547 3.254409 -2.911510 -0.584850 -0.204952 -3.207420 -3.042850 -7.266460 -3.250063 0.411253 8.818095 -6.199135 -6.588513 -4.149227 -0.325243 0.256520 0.000000 0.000000 0.000000 -5.238619 5.383815 1.225570 -51.317582 -4.139934 10.447797 -1.685110 -57.449515 -0.024447 16.738140 -1.026923 -0.167233 -0.196340 0.108257 0.000000 0.000000 0.000000 0.000000 0.000000 0.000000 0.000000 17.091300 -5.272860 1.509589 59.472238 -8.958785 -10.338184 4.304175 3.162549 -0.000939 -5.913802 0.136445 -0.007870 0.159398 -0.013377 -0.000000 0.000000 0.000000 0.000000 0.000000 0.000000 0.000000 
-10.720734 16.697906 1.165000 -101.111845 88.458617 -89.917858 3.869183 -2.766357 -0.438183 -0.090331 -3.094511 -3.045674 -7.274173 -3.142705 0.359049 8.719123 -5.716011 -6.568297 -4.187144 -0.327464 0.257790 0.000000 0.000000 0.000000 -5.671623 5.636545 1.290696 -52.126611 -4.046390 10.307084 -1.748387 -56.139698 -0.023261 16.777794 -0.789488 -0.131029 -0.188444 0.100049 0.000000 0.000000 0.000000 0.000000 0.000000 0.000000 0.000000 17.042291 -4.698490 1.537848 59.556204 -7.932407 -10.111964 4.274902 3.344282 -0.000401 -6.196133 0.497995 -0.028553 0.159065 -0.017384 -0.000000 0.000000 0.000000 0.000000 0.000000 0.000000 0.000000 
-10.518480 16.707299 1.151879 -99.059184 87.986400 -87.870855 4.444655 -2.628980 -0.288199 0.011212 -2.986611 -3.047475 -7.289584 -3.040155 0.304359 8.660991 -5.243663 -6.558354 -4.228550 -0.329800 0.255779 0.000000 0.000000 0.000000 -6.077262 5.868244 1.358520 -52.981921 -3.909567 10.260484 -1.809178 -54.745527 -0.021873 16.820602 -0.617107 -0.104432 -0.179579 0.092025 0.000000 0.000000 0.000000 0.000000 0.000000 0.000000 0.000000 17.050352 -4.134760 1.569520 59.659839 -6.795941 -9.756523 4.243858 3.661511 0.000129 -6.369678 0.860789 -0.050233 0.158024 -0.021450 -0.000000 0.000000 0.000000 0.000000 0.000000 0.000000 0.000000 
-10.320668 16.721434 1.137490 -99.109823 87.538984 -87.878509 4.965668 -2.502367 -0.155459 0.098924 -2.886852 -3.052812 -7.309325 -2.946017 0.244624 8.633230 -4.756563 -6.542799 -4.271687 -0.332306 0.255181 0.000000 0.000000 0.000000 -6.457213 6.065777 1.429619 -53.863847 -3.716144 10.332073 -1.866081 -53.273064 -0.020282 16.858700 -0.506727 -0.087038 -0.169810 0.084136 0.000000 0.000000 0.000000 0.000000 0.000000 0.000000 0.000000 17.092541 -3.560337 1.602803 59.798723 -5.555921 -9.587730 4.212134 3.987301 0.000835 -6.429754 1.329663 -0.077909 0.156256 -0.026550 -0.000000 0.000000 0.000000 0.000000 0.000000 0.000000 0.000000 
-10.126620 16.740104 1.122548 -100.508551 87.135215 -89.186058 5.408056 -2.387182 -0.051143 0.169089 -2.795203 -3.063040 -7.331771 -2.860284 0.181567 8.634420 -4.261208 -6.515551 -4.315613 -0.335008 0.257918 0.000000 0.000000 0.000000 -6.800036 6.221704 1.502695 -54.764295 -3.465553 10.535537 -1.918694 -51.719185 -0.018513 16.872255 -0.448347 -0.077247 -0.159273 0.076371 0.000000 0.000000 0.000000 0.000000 0.000000 0.000000 0.000000 17.167129 -2.982317 1.635129 59.974161 -4.242607 -9.576670 4.178621 4.347131 0.001687 -6.388925 1.888883 -0.109682 0.153804 -0.032512 -0.000000 0.000000 0.000000 0.000000 0.000000 0.000000 0.000000 
-9.935721 16.762963 1.107937 -102.861506 86.792479 -91.409504 5.741513 -2.282129 0.026110 0.216180 -2.708670 -3.075494 -7.356637 -2.779584 0.122791 8.671183 -3.803915 -6.483287 -4.359693 -0.337832 0.262301 0.000000 0.000000 0.000000 -7.084905 6.333496 1.573478 -55.686856 -3.169180 10.868688 -1.967306 -50.075180 -0.016610 16.830366 -0.427130 -0.072857 -0.148173 0.068762 0.000000 0.000000 0.000000 0.000000 0.000000 0.000000 0.000000 17.291155 -2.445491 1.664022 60.167595 -2.879712 -9.395858 4.139875 4.869348 0.002498 -6.290857 2.429577 -0.138753 0.150898 -0.038289 -0.000000 0.000000 0.000000 0.000000 0.000000 0.000000 0.000000 
-9.747227 16.789440 1.093829 -105.922132 86.507034 -94.310416 5.967535 -2.185285 0.070536 0.241588 -2.625739 -3.092619 -7.381095 -2.702637 0.063034 8.728023 -3.352921 -6.430279 -4.401969 -0.340799 0.272830 0.000000 0.000000 0.000000 -7.320183 6.393837 1.644687 -56.617425 -2.808435 11.326943 -2.012323 -48.354021 -0.014644 16.697076 -0.410965 -0.068865 -0.136674 0.061302 0.000000 0.000000 0.000000 0.000000 0.000000 0.000000 0.000000 17.434844 -1.917348 1.688862 60.400075 -1.492818 -9.294771 4.096911 5.467656 0.003349 -6.131948 3.011222 -0.167421 0.147543 -0.044610 -0.000000 0.000000 0.000000 0.000000 0.000000 0.000000 0.000000 
-9.560361 16.818884 1.080253 -109.476159 86.267383 -97.683664 6.091576 -2.093169 0.085168 0.247124 -2.543049 -3.111195 -7.403796 -2.625581 0.012453 8.802161 -2.950961 -6.368628 -4.440469 -0.343673 0.286294 0.000000 0.000000 0.000000 -7.507482 6.425602 1.711946 -57.558099 -2.412576 11.899119 -2.055695 -46.550608 -0.012703 16.432628 -0.373331 -0.061270 -0.125134 0.054105 0.000000 0.000000 0.000000 0.000000 0.000000 0.000000 0.000000 17.597946 -1.437610 1.706619 60.652734 -0.079723 -9.027789 4.048012 6.216907 0.004090 -5.956449 3.550237 -0.191687 0.144083 -0.050747 -0.000000 0.000000 0.000000 0.000000 0.000000 0.000000 0.000000 
-9.374316 16.850517 1.066763 -113.292657 86.052095 -101.301053 6.141199 -2.001558 0.061032 0.239293 -2.458319 -3.136386 -7.422082 -2.546596 -0.041415 8.872385 -2.545800 -6.277955 -4.473702 -0.346558 0.308551 0.000000 0.000000 0.000000 -7.669570 6.410731 1.779968 -58.492927 -1.930682 12.551738 -2.097324 -44.708891 -0.010859 15.995328 -0.276398 -0.044971 -0.113649 0.047193 0.000000 0.000000 0.000000 0.000000 0.000000 0.000000 0.000000 17.740345 -0.950354 1.718729 60.950294 1.307410 -8.862747 3.995621 7.047991 0.004789 -5.741862 4.095280 -0.213152 0.140416 -0.057443 -0.000000 0.000000 0.000000 0.000000 0.000000 0.000000 0.000000 
-9.188871 16.883604 1.053672 -117.204604 85.864090 -105.017908 6.109671 -1.908672 0.020073 0.217098 -2.367981 -3.162410 -7.436328 -2.461775 -0.092115 8.941818 -2.172120 -6.171108 -4.500904 -0.349263 0.335853 0.000000 0.000000 0.000000 -7.803917 6.367177 1.846540 -59.421378 -1.385553 13.253452 -2.139889 -42.836937 -0.009176 15.351193 -0.100722 -0.018464 -0.102601 0.040713 0.000000 0.000000 0.000000 0.000000 0.000000 0.000000 0.000000 17.871287 -0.487040 1.724385 61.274032 2.675095 -8.580159 3.937258 8.025901 0.005308 -5.524930 4.568853 -0.228917 0.136790 -0.064096 -0.000000 0.000000 0.000000 0.000000 0.000000 0.000000 0.000000 
-9.003562 16.917371 1.040509 -121.021769 85.688422 -108.648837 6.020251 -1.812063 -0.034362 0.185774 -2.270641 -3.188285 -7.445553 -2.369579 -0.136828 9.003146 -1.837708 -6.055256 -4.520955 -0.351640 0.366235 0.000000 0.000000 0.000000 -7.926106 6.315960 1.910800 -60.336325 -0.788431 13.975049 -2.185614 -40.956293 -0.007694 14.477633 0.170654 0.018051 -0.092280 0.034726 0.000000 0.000000 0.000000 0.000000 0.000000 0.000000 0.000000 17.979668 -0.052283 1.722552 61.614362 4.025643 -8.151249 3.873453 9.149197 0.005628 -5.316301 4.954597 -0.238981 0.133353 -0.070661 -0.000000 0.000000 0.000000 0.000000 0.000000 0.000000 0.000000 
-8.818246 16.951030 1.027152 -124.620822 85.522749 -112.080508 5.883102 -1.711178 -0.090718 0.147668 -2.165619 -3.211313 -7.449405 -2.269173 -0.172127 9.054159 -1.550766 -5.940050 -4.533473 -0.353550 0.396861 0.000000 0.000000 0.000000 -8.043268 6.282668 1.972504 -61.231038 -0.161901 14.692426 -2.237378 -39.081322 -0.006427 13.367258 0.543349 0.061178 -0.082972 0.029261 0.000000 0.000000 0.000000 0.000000 0.000000 0.000000 0.000000 18.063092 0.348325 1.712287 61.960042 5.366537 -7.545468 3.804083 10.416501 0.005739 -5.124370 5.240061 -0.243745 0.130204 -0.077095 -0.000000 0.000000 0.000000 0.000000 0.000000 0.000000 0.000000 
